<svg xmlns="http://www.w3.org/2000/svg" viewBox="0 0 314.55 54.62"><defs><style>.cls-1{fill:#125f00;}</style></defs><g id="Layer_2" data-name="Layer 2"><g id="Layer_1-2" data-name="Layer 1"><path class="cls-1" d="M39.88,18.84H49L38.75,53.93H30.3L26.78,40.51c-.89-3.46-1.58-6.8-2.27-11h-.13a85.27,85.27,0,0,1-2.33,11L18.21,53.93H9.77L0,18.84H9.64l3,15.37c.69,3.72,1.39,7.5,1.89,11.22h.19c.63-3.72,1.64-7.63,2.46-11.09L21,18.84h7.37L32.13,33.9c1,4,1.83,7.75,2.46,11.53h.19c.44-3.72,1.13-7.5,1.95-11.53Z"/><path class="cls-1" d="M63.5,23.06a11.46,11.46,0,0,1,9.39-5C79.13,18.08,84,22.62,84,33v21H74.72V33.71c0-4.48-1.39-7.94-5.42-7.94-2.33,0-5.92,1.64-5.92,6.87V53.93H54.05V3.28h9.33V23.06Z"/><path class="cls-1" d="M123,36.1c0,13.36-8.57,18.52-16.38,18.52-9.45,0-16.26-6.67-16.26-18.08,0-11.78,7.12-18.46,16.63-18.46C116.8,18.08,123,25.45,123,36.1ZM106.78,25c-5.16,0-7,6.05-7,11.4,0,6.24,2.4,11.41,6.93,11.41s6.81-5.23,6.81-11.47C113.53,30.81,111.57,25,106.78,25Z"/><path class="cls-1" d="M127.26,15A87.79,87.79,0,0,0,131.48.63L140.11,0a92.76,92.76,0,0,1-8.19,14.62Z"/><path class="cls-1" d="M130.34,45.49a18.42,18.42,0,0,0,8.19,2.33c3.27,0,4.85-1.39,4.85-3.53s-1.2-3.27-5-4.91c-6.55-2.65-9-6.37-9-10.21,0-6.3,5-11.09,12.86-11.09a19,19,0,0,1,8.69,2l-1.76,6.55a14.49,14.49,0,0,0-6.62-1.83c-2.83,0-4.35,1.45-4.35,3.34s1.33,3,5.36,4.66c5.92,2.46,8.69,5.86,8.69,10.71,0,6.68-5,11.09-13.8,11.09a20.43,20.43,0,0,1-9.89-2.33Z"/><path class="cls-1" d="M180.67,23.63a11.81,11.81,0,0,1,10.15-5.48c6.42,0,11.4,4.47,11.4,14.3V53.93H192.9V33.46c0-4.29-1.39-7.69-5.36-7.69-2.52,0-6,1.95-6,7.31V53.93h-9.33V29.42c0-4.09-.12-7.43-.25-10.52H180l.44,4.73Z"/><path class="cls-1" d="M215.13,14.24a4.79,4.79,0,0,1-5-5,5,5,0,0,1,10,0A4.78,4.78,0,0,1,215.13,14.24Zm4.73,4.6V53.93h-9.33V18.84Z"/><path class="cls-1" d="M250.54,26.59a12.27,12.27,0,0,0-5.48-1.14c-5.86,0-9.26,4.73-9.26,10.9,0,6.87,4,10.84,9.32,10.84a13.37,13.37,0,0,0,5.67-1.13l1,7a21.7,21.7,0,0,1-8.5,1.51c-10.27,0-17-6.68-17-17.83,0-10.52,6.8-18.58,18.39-18.58a20.43,20.43,0,0,1,7.31,1.32Z"/><path class="cls-1" d="M276,33.27l12.85,20.66H277.76l-8.19-15-2.46,3.34V53.93h-9.33V3.28h9.33V34.15h.19a44,44,0,0,1,2.33-4.35l7-11h10.84Z"/><path class="cls-1" d="M297.1,38.87c-.13-2-.19-2.27-.19-2.83,0-3.53,1.32-7,4.15-10.71,2.4-3.15,4-5.61,4-8.32,0-2.9-1.83-4.85-5.42-4.85a11.74,11.74,0,0,0-6.36,1.89l-2-6.8a21.16,21.16,0,0,1,10.4-2.65c9.07,0,12.79,5.42,12.79,11,0,5.23-3.15,9-5.93,12.41-3.46,4.35-3.46,6.62-3.46,10.9Zm-1.64,10A5.52,5.52,0,0,1,301,43c3.28,0,5.55,2.4,5.55,5.86a5.55,5.55,0,1,1-11.09,0Z"/></g></g></svg>